<svg xmlns="http://www.w3.org/2000/svg" viewBox="0 0 413 413"><g data-name="Camada 2"><g data-name="Camada 1"><path fill="#282828" d="M0 0h413v413H0z"/><path d="M346.64 248.57c-7.58 7.07-20 9.77-43.57 9.77-31.42 0-52-3.5-65.57-30.56-10.57-21-14.84-43.56-9.7-51.34 7.1-10.73 27.53-18 50.34-20.17 39.62 18.82 67.44 56.58 68.5 92.3zm-230.07-92.95c-24.55.68-48.48 7.55-58.7 22.65-7 10.32-5.43 40.33-.71 54.43 6.43 19.25 16.29 25.64 52.76 25.64 31.42 0 52-3.5 65.57-30.56 1.35-2.69 2.6-5.42 3.76-8.16-10.38-26.15-33.25-50.31-62.68-64z" style="isolation:isolate" opacity=".2" fill="#fff"/><path d="M355.83 232.73c-2.28 6.81-5 12-9.19 15.87-1.06-35.72-28.88-73.47-68.53-92.33 30.1-2.86 64.22 3.18 77 22 7.02 10.35 5.44 40.33.72 54.46zm-170.6-56.29c-9-13.59-39.27-21.62-68.66-20.78 29.43 13.65 52.3 37.81 62.71 64 7.72-18.45 10.41-36.44 5.95-43.22z" style="isolation:isolate" opacity=".4" fill="#fff"/><path d="M372.89 163.46c-32.71-17.54-116.11-22.52-146.19.49-2.57 1.51-13.59-1.71-20.21-1.71-6.26 0-17.41 3.38-20.2 1.71-30.08-23-113.48-18-146.19-.49C35.41 166 34.9 178 39 179.78c2.92 1.32 4.85 3.15 4.69 6.37-1 18 3.95 41.51 6.13 48 2.8 8.33 7.84 23.81 29.85 27.63 18.73 3.25 52.79 4.76 70.49-.54 32.1-9.58 45.75-58 46.33-74.44v.06c1.29-5.78 18.7-5.78 20 0v-.06c.55 16.48 14.23 64.86 46.33 74.44 17.7 5.3 51.76 3.79 70.49.54 22-3.82 27.05-19.3 29.85-27.63 2.18-6.49 7.16-29.91 6.17-48-.16-3.22 1.8-5.05 4.69-6.37 4.07-1.78 3.56-13.78-1.13-16.32zm-226.12 89.16c-16.26 4.85-46 5.17-63.33 2.15-14.58-2.54-20.69-10.47-24.74-22.58-4.75-14.14-6-43.41.52-53 21.72-32.06 108.82-25.86 124.66-1.86 7.06 10.74-6.65 66.2-37.11 75.29zm207.52-20.4c-4.05 12.11-10.19 20.05-24.74 22.59-17.32 3-47.07 2.69-63.33-2.16-30.46-9.09-44.18-64.54-37.11-75.31 15.84-24 102.94-30.2 124.66 1.87 6.52 9.57 5.23 38.87.52 53.01z" fill="#fffaf3"/><path d="M266.19 252.49c9 2.67 22 4 34.86 4.08-40.29 3.92-49.45-10.92-55-16.58-11.3-11.53-18.28-28.75-18.79-53.49.09 19.5 13.81 58.5 38.93 65.99zm-80-88.67c-30.07-23-113.48-18.06-146.18-.48 74.69-20.95 118.07-10.13 146.21.48zM83.38 254.68c-14.59-2.54-20.69-10.48-24.74-22.59-4.24-12.63-5.69-37.33-1.29-49.32-5.88 13.56-3.59 39.81.84 53 5.14 15.43 14.59 23.07 55.71 20.76a172.4 172.4 0 0 1-30.52-1.85zm293.3-82.57c-.13-3.63-1.45-7.46-3.86-8.77-32.06-17.23-112.9-22.3-144.35-.81 42.28-16.93 103.23-19.31 148.21 9.58z" fill="#fffffd"/></g></g></svg>